<svg xmlns="http://www.w3.org/2000/svg" width="249" height="249" viewBox="0 0 249 249">
  <g id="icon_compras" transform="translate(-600 -291)">
    <g id="Grupo_1" data-name="Grupo 1" transform="translate(240 141)">
      <circle id="Elipse_1" data-name="Elipse 1" cx="124.5" cy="124.5" r="124.5" transform="translate(360 150)" fill="#a5beff"/>
    </g>
    <path id="Trazado_7" data-name="Trazado 7" d="M463.434,229.779l-9-2.408a2.29,2.29,0,0,1-1.767-2.155,2.359,2.359,0,0,1,2.459-2.247h5.526a5.434,5.434,0,0,1,2.851.8,1.392,1.392,0,0,0,1.625-.153l2.9-2.59a1.169,1.169,0,0,0-.15-1.866,12.516,12.516,0,0,0-7.21-2.285v-3.656A1.284,1.284,0,0,0,459.333,212h-2.667a1.284,1.284,0,0,0-1.334,1.219v3.656h-.208c-5.31,0-9.577,4.167-9.085,9.11.35,3.512,3.284,6.368,6.984,7.358l8.544,2.286a2.3,2.3,0,0,1,1.767,2.155,2.359,2.359,0,0,1-2.459,2.247h-5.526a5.434,5.434,0,0,1-2.851-.8,1.392,1.392,0,0,0-1.625.153l-2.9,2.59a1.169,1.169,0,0,0,.15,1.866,12.518,12.518,0,0,0,7.21,2.285v3.656A1.284,1.284,0,0,0,456.666,251h2.667a1.284,1.284,0,0,0,1.334-1.219V246.11c3.884-.069,7.526-2.179,8.81-5.538C471.269,235.88,468.26,231.066,463.434,229.779Z" transform="translate(240 141)" fill="#6e91ec"/>
  </g>
</svg>
