<svg xmlns="http://www.w3.org/2000/svg" width="249" height="249" viewBox="0 0 249 249">
  <g id="icon_facturas" transform="translate(0 160)">
    <circle id="Elipse_2" data-name="Elipse 2" cx="124.5" cy="124.5" r="124.5" transform="translate(0 -160)" fill="#ffc690"/>
    <path id="Trazado_171" data-name="Trazado 171" d="M139.38,25.229l-8.668-8.613A2.131,2.131,0,0,0,129.207,16h-.54V27.25H140v-.536A2.093,2.093,0,0,0,139.38,25.229Zm-13.547,2.725V16H108.125A2.112,2.112,0,0,0,106,18.11V58.891A2.112,2.112,0,0,0,108.125,61h29.75A2.112,2.112,0,0,0,140,58.891V30.063H127.958A2.124,2.124,0,0,1,125.833,27.953Zm-14.166-5.625a.706.706,0,0,1,.708-.7h7.083a.706.706,0,0,1,.709.7v1.406a.706.706,0,0,1-.709.7h-7.083a.705.705,0,0,1-.708-.7Zm0,7.031V27.953a.706.706,0,0,1,.708-.7h7.083a.706.706,0,0,1,.709.7V29.36a.706.706,0,0,1-.709.7h-7.083A.705.705,0,0,1,111.667,29.36Zm12.75,23.193v2.12a.706.706,0,0,1-.709.7h-1.416a.706.706,0,0,1-.709-.7V52.537a5.093,5.093,0,0,1-2.777-1,.7.7,0,0,1-.051-1.067l1.041-.985a.731.731,0,0,1,.9-.064,2.141,2.141,0,0,0,1.135.327h2.489a1.108,1.108,0,0,0,1.044-1.159,1.147,1.147,0,0,0-.776-1.119L120.6,46.285a3.982,3.982,0,0,1-2.8-3.814,3.927,3.927,0,0,1,3.778-3.961v-2.12a.706.706,0,0,1,.709-.7h1.416a.706.706,0,0,1,.709.7v2.135a5.084,5.084,0,0,1,2.777,1,.7.7,0,0,1,.051,1.067l-1.041.985a.73.73,0,0,1-.9.064,2.139,2.139,0,0,0-1.136-.327h-2.489a1.108,1.108,0,0,0-1.044,1.159,1.147,1.147,0,0,0,.776,1.119l3.985,1.187a3.981,3.981,0,0,1,2.8,3.813A3.926,3.926,0,0,1,124.417,52.552Z" fill="#e4964d"/>
  </g>
</svg>
