<svg xmlns="http://www.w3.org/2000/svg" width="199.99" height="139.996" viewBox="0 0 199.99 139.996">
  <g id="img_02" transform="translate(0 -0.004)">
    <path id="Trazado_172" data-name="Trazado 172" d="M87.48,28.509c-14.6,3.948-23.32,19.279-19.465,34.235S86.838,86.629,101.441,82.68s23.32-19.278,19.465-34.235S102.084,24.56,87.48,28.509ZM98.142,69.84a14.366,14.366,0,0,1-17.59-10.475A14.779,14.779,0,0,1,90.8,41.349,14.339,14.339,0,0,1,108.37,51.842,14.765,14.765,0,0,1,98.142,69.84Z" fill="#dae2f2"/>
    <path id="Trazado_173" data-name="Trazado 173" d="M95.26,33.133,83.33,36.352s-4.549-9.177-3.056-11.827c1.545-2.739,9.446-5.086,11.912-3.219C94.617,23.12,95.26,33.133,95.26,33.133Z" fill="#dae2f2"/>
    <path id="Trazado_174" data-name="Trazado 174" d="M104.931,75.318,93,78.537s.469,10.3,3.056,11.827c2.657,1.583,10.662-.338,11.929-3.219C109.2,84.352,104.931,75.318,104.931,75.318Z" fill="#dae2f2"/>
    <path id="Trazado_175" data-name="Trazado 175" d="M78.607,39.3,73.8,50.935s-9.88-1.921-11.009-4.766c-1.163-2.917,1.841-10.76,4.81-11.631C70.481,33.7,78.607,39.3,78.607,39.3Z" fill="#dae2f2"/>
    <path id="Trazado_176" data-name="Trazado 176" d="M73.415,56.466,74.579,69.04S64.994,72.134,62.685,70.2c-2.379-2.01-3.369-10.368-1.163-12.574C63.674,55.47,73.415,56.466,73.415,56.466Z" fill="#dae2f2"/>
    <path id="Trazado_177" data-name="Trazado 177" d="M116.5,56.964l-2.657-12.325s9.151-4.286,11.669-2.65c2.605,1.707,4.584,9.87,2.657,12.342C126.289,56.715,116.5,56.964,116.5,56.964Z" fill="#dae2f2"/>
    <path id="Trazado_178" data-name="Trazado 178" d="M100.069,33.1l9.794,7.683s7.657-6.669,7.275-9.71c-.4-3.13-6.789-8.43-9.776-7.683C104.428,24.1,100.069,33.1,100.069,33.1Z" fill="#dae2f2"/>
    <path id="Trazado_179" data-name="Trazado 179" d="M87.012,79.248l-9.776-7.683s-7.658,6.669-7.276,9.71c.4,3.13,6.789,8.43,9.776,7.683C82.653,88.229,87.012,79.248,87.012,79.248Z" fill="#dae2f2"/>
    <path id="Trazado_180" data-name="Trazado 180" d="M110.887,73.2,115.7,61.57s9.88,1.921,11.009,4.766c1.163,2.917-1.841,10.76-4.81,11.631C119.031,78.8,110.887,73.2,110.887,73.2Z" fill="#dae2f2"/>
    <path id="Trazado_181" data-name="Trazado 181" d="M137.993,137.973h2.413l1.32-36.921h-5.609Z" fill="#fff"/>
    <path id="Trazado_182" data-name="Trazado 182" d="M138.913,137.973V101.052h-2.8l1.876,36.921Z" fill="#fff"/>
    <path id="Trazado_183" data-name="Trazado 183" d="M162.146,140h-45.72l22.852-3.486Z" fill="#fff"/>
    <path id="Trazado_184" data-name="Trazado 184" d="M138.913,136.568,116.426,140h22.487Z" fill="#fff"/>
    <path id="Trazado_185" data-name="Trazado 185" d="M163.57,47.716c-4.845-3.77-15.107-4.09-17.26,4.286-1.875,7.292-3,18.247-5.834,27.495-1.7,5.531-3.7,15.241-23.372,17.536-1.876.213-8.717,3.219-3.3,7.789,17.243,14.512,35.215,7.879,44.539,1.779C175.76,95.183,168.05,51.2,163.57,47.716Z" fill="#ffc690"/>
    <path id="Trazado_186" data-name="Trazado 186" d="M109.481,126.715l-1.858-.409-1.146,2.739-1.025,1.049-6.268,2.632,9.95-.213Z" fill="#ffda89"/>
    <path id="Trazado_187" data-name="Trazado 187" d="M153.221,93.6s-6.911,8.875-12.815,11.009c0,0-15.054.427-26.445-4.944,0,0-1.164,9.728-2.692,22.373l-1.111,6.242-3.525-.658s-3.976-29.273-2.552-34.4c1.441-5.122,13.943-3.041,16.027-2.935.92.053,3.855-.356,9.463-.765C136.239,89.083,153.221,93.6,153.221,93.6Z" fill="#1f0b4c"/>
    <path id="Trazado_188" data-name="Trazado 188" d="M123.355,130.61,121.5,130.2l-1.164,2.739-1.007,1.049-6.268,2.632,9.932-.2Z" fill="#ffda89"/>
    <path id="Trazado_189" data-name="Trazado 189" d="M97.656,63.758s-2.9-3.023-3.82-2.81c-.781.178-3.212,2.1,2.935,4.268Z" fill="#ffc190"/>
    <path id="Trazado_190" data-name="Trazado 190" d="M129.953,66.159,116.791,79.693,96.232,65.216,97.343,63.4l17.5,8.59L127.175,60.61s5.435-5.033,6.373-1.316C134,61.179,132.61,63.313,129.953,66.159Z" fill="#ffc7ca"/>
    <path id="Trazado_191" data-name="Trazado 191" d="M150.373,63.42s-16.7-5.727-18.666-5.478c-1.945.231-3.334,7.5-3.664,9.941-.451,3.575,1.736,7.061,2.622,11.258s-1.111,10.422-1.111,10.422l25.56,6.367-4.445-13.392Z" fill="#ff2363"/>
    <path id="Trazado_192" data-name="Trazado 192" d="M155.114,95.912s2.934,10.457-3.317,10.493c-6.6.035-12.919.071-26.046-3.415,0,0-.66,12.574-1.146,22.516l-.677,6.313-3.577-.409s-5.991-28.918-4.914-34.111c1.076-5.211,14.047-5,16.131-5.033a53.852,53.852,0,0,1,10.106.48A114.574,114.574,0,0,1,155.114,95.912Z" fill="#351270"/>
    <path id="Trazado_193" data-name="Trazado 193" d="M141.952,56.413l.712,4.8s-6.078,3.5-5.279,1.227a53.676,53.676,0,0,0,1.528-6.385Z" fill="#ffc190"/>
    <path id="Trazado_194" data-name="Trazado 194" d="M142.542,51.024c.261,1,.8,2.952.139,4.144-.66,1.209-1.7,3.361-3.16,3.752a2,2,0,0,1-2.327-1.6c-.26-.96,0-6.225,2.4-7.238C141.413,49.317,142.334,50.277,142.542,51.024Z" fill="#ffc190"/>
    <path id="Trazado_195" data-name="Trazado 195" d="M138.583,50.953a2.813,2.813,0,0,0,2.5.907c1.614-.213,1.232,1.334,1.215,1.512s-.521,2.4,0,2.508c.538.089,1.563-2.632.972-4.606A2.516,2.516,0,0,0,138.583,50.953Z" fill="#171b23"/>
    <path id="Trazado_196" data-name="Trazado 196" d="M141.865,56.644s-1.754,1.387-3.369,1c-1.024-.249-1.354-2.152-1.3-2.543s-.886,3.45,1.389,3.841C140.84,59.329,141.865,56.644,141.865,56.644Z" fill="#171b23"/>
    <path id="Trazado_197" data-name="Trazado 197" d="M116.878,77.15s-3.542-2.187-4.376-1.743c-.712.373-2.587,2.863,3.89,3.361Z" fill="#ffc190"/>
    <path id="Trazado_198" data-name="Trazado 198" d="M148.724,71.138l-9.412,16.486-23.459-8.7.626-2.045,19.048,3.806L144.661,66.5s4.011-6.278,5.834-2.917C151.433,65.287,150.6,67.724,148.724,71.138Z" fill="#ffc7ca"/>
    <path id="Trazado_199" data-name="Trazado 199" d="M127.592,3.806a13.592,13.592,0,0,0-9.412,16.575,13.226,13.226,0,0,0,16.184,9.657,13.592,13.592,0,0,0,9.411-16.575A13.206,13.206,0,0,0,127.592,3.806Zm5.157,19.99a6.944,6.944,0,0,1-8.509-5.069,7.145,7.145,0,0,1,4.949-8.714,6.944,6.944,0,0,1,8.509,5.069A7.129,7.129,0,0,1,132.749,23.8Z" fill="#c8eefb"/>
    <path id="Trazado_200" data-name="Trazado 200" d="M131.342,6.047l-5.765,1.565s-2.205-4.446-1.476-5.727c.747-1.316,4.567-2.454,5.765-1.565C131.047,1.192,131.342,6.047,131.342,6.047Z" fill="#c8eefb"/>
    <path id="Trazado_201" data-name="Trazado 201" d="M136.031,26.446l-5.765,1.565s.225,4.98,1.476,5.727c1.285.765,5.157-.16,5.765-1.565C138.1,30.821,136.031,26.446,136.031,26.446Z" fill="#c8eefb"/>
    <path id="Trazado_202" data-name="Trazado 202" d="M123.3,9.035l-2.327,5.638s-4.775-.943-5.331-2.312c-.556-1.4.886-5.211,2.327-5.62C119.361,6.313,123.3,9.035,123.3,9.035Z" fill="#c8eefb"/>
    <path id="Trazado_203" data-name="Trazado 203" d="M120.785,17.322l.556,6.082s-4.637,1.494-5.748.551c-1.146-.978-1.632-5.015-.556-6.082C116.062,16.86,120.785,17.322,120.785,17.322Z" fill="#c8eefb"/>
    <path id="Trazado_204" data-name="Trazado 204" d="M141.622,17.571l-1.285-5.958s4.428-2.081,5.643-1.281c1.25.818,2.223,4.766,1.285,5.976C146.362,17.447,141.622,17.571,141.622,17.571Z" fill="#c8eefb"/>
    <path id="Trazado_205" data-name="Trazado 205" d="M133.669,6.029l4.74,3.717s3.7-3.219,3.525-4.7c-.191-1.512-3.281-4.073-4.74-3.717C135.787,1.672,133.669,6.029,133.669,6.029Z" fill="#c8eefb"/>
    <path id="Trazado_206" data-name="Trazado 206" d="M127.366,28.348l-4.741-3.717s-3.715,3.237-3.524,4.7c.191,1.512,3.281,4.073,4.74,3.717C125.247,32.706,127.366,28.348,127.366,28.348Z" fill="#c8eefb"/>
    <path id="Trazado_207" data-name="Trazado 207" d="M138.913,25.432l2.327-5.62s4.775.925,5.331,2.312c.555,1.405-.886,5.211-2.327,5.62C142.855,28.135,138.913,25.432,138.913,25.432Z" fill="#c8eefb"/>
    <path id="Trazado_208" data-name="Trazado 208" d="M167.876,88.567S154.367,105.2,136.1,107.01c-1.65.16-10.853.853-2.049,6.438C134.068,113.448,164,116.329,167.876,88.567Z" fill="#ffb979"/>
    <path id="Trazado_209" data-name="Trazado 209" d="M97.882,89.6H121.67l-4.653-15.739H97.882Z" fill="#fff"/>
    <path id="Trazado_210" data-name="Trazado 210" d="M97.882,89.6h22.469l-4.636-15.739H93.245Z" fill="#fff"/>
    <path id="Trazado_211" data-name="Trazado 211" d="M135.076,88.46H120.351V89.6h14.725Z" fill="#fff"/>
    <path id="Trazado_212" data-name="Trazado 212" d="M107.918,82.911a1.98,1.98,0,1,1-1.979-2.027A2,2,0,0,1,107.918,82.911Z" fill="#eaeaea"/>
    <path id="Trazado_213" data-name="Trazado 213" d="M80.743,92.071H76.367v47.911h4.376Z" fill="#fff"/>
    <path id="Trazado_214" data-name="Trazado 214" d="M80.743,92.071H78.555v47.911h2.188Z" fill="#fff"/>
    <path id="Trazado_215" data-name="Trazado 215" d="M170.741,92.071h-4.375v47.911h4.375Z" fill="#fff"/>
    <path id="Trazado_216" data-name="Trazado 216" d="M170.741,92.071h-2.187v47.911h2.187Z" fill="#fff"/>
    <path id="Trazado_217" data-name="Trazado 217" d="M106.459,92.071h-4.375v47.911h4.375Z" fill="#fff"/>
    <path id="Trazado_218" data-name="Trazado 218" d="M106.459,92.071h-2.187v47.911h2.187Z" fill="#fff"/>
    <path id="Trazado_219" data-name="Trazado 219" d="M173.641,89.581H73.242v2.49h100.4Z" fill="#ffc690"/>
    <path id="Trazado_220" data-name="Trazado 220" d="M173.641,89.581H104.272v2.49h69.369Z" fill="#ff9432"/>
    <path id="Trazado_221" data-name="Trazado 221" d="M90.311,84.655h-.122a1.69,1.69,0,0,0,0,3.379h.122a1.69,1.69,0,0,0,0-3.379Zm-.156,2.614h-.07a.925.925,0,0,1,0-1.85h.07a.925.925,0,0,1,0,1.85Z" fill="#fff"/>
    <path id="Trazado_222" data-name="Trazado 222" d="M85.223,89.545a4.535,4.535,0,0,0,4.48-4.588V83.143h-8.96v1.814A4.535,4.535,0,0,0,85.223,89.545Z" fill="#fff"/>
    <path id="Trazado_223" data-name="Trazado 223" d="M83.99,82.076c-2.136-.925-3.317-3.77,0-6.74s1.476-5.709,1.2-6.136,5.348,2.543,1.215,6.438C82.9,78.963,87.081,83.427,83.99,82.076Z" fill="#fff"/>
    <path id="Trazado_224" data-name="Trazado 224" d="M87.255,82.307c-.92-.409-1.441-1.636,0-2.917a1.889,1.889,0,0,0,.521-2.65c-.122-.178,2.309,1.1.521,2.774C86.786,80.955,88.592,82.894,87.255,82.307Z" fill="#fff"/>
    <path id="Trazado_225" data-name="Trazado 225" d="M97.882,89.6H121.67l-4.653-15.739H97.882Z" fill="#fff"/>
    <path id="Trazado_226" data-name="Trazado 226" d="M97.882,89.6h22.469l-4.636-15.739H93.245Z" fill="#fff"/>
    <path id="Trazado_227" data-name="Trazado 227" d="M135.076,88.46H120.351V89.6h14.725Z" fill="#fff"/>
    <path id="Trazado_228" data-name="Trazado 228" d="M107.918,82.911a1.98,1.98,0,1,1-1.979-2.027A2,2,0,0,1,107.918,82.911Z" fill="#eaeaea"/>
    <path id="Trazado_229" data-name="Trazado 229" d="M97.882,89.6H121.67l-4.653-15.739H97.882Z" fill="#fff"/>
    <path id="Trazado_230" data-name="Trazado 230" d="M97.882,89.6h22.469l-4.636-15.739H93.245Z" fill="#fff"/>
    <path id="Trazado_231" data-name="Trazado 231" d="M135.076,88.46H120.351V89.6h14.725Z" fill="#fff"/>
    <path id="Trazado_232" data-name="Trazado 232" d="M107.918,82.911a1.98,1.98,0,1,1-1.979-2.027A2,2,0,0,1,107.918,82.911Z" fill="#eaeaea"/>
    <path id="Trazado_233" data-name="Trazado 233" d="M54.662,72.277H52.145V137.3h2.518Z" fill="#9bc6ea"/>
    <path id="Trazado_234" data-name="Trazado 234" d="M19.5,72.277H16.982V137.3H19.5Z" fill="#9bc6ea"/>
    <path id="Trazado_235" data-name="Trazado 235" d="M4.2,72.277H1.684V137.3H4.2Z" fill="#9bc6ea"/>
    <path id="Trazado_236" data-name="Trazado 236" d="M0,88.6H18.25V21.413H5.053Z" fill="#d0dbe6"/>
    <path id="Trazado_237" data-name="Trazado 237" d="M13.6,88.6H58.4l-7.571-67.19H9.394Z" fill="#fff"/>
    <path id="Trazado_238" data-name="Trazado 238" d="M52.787,82.556h2.466L53.377,71.672H50.912Z" fill="#ffc690"/>
    <path id="Trazado_239" data-name="Trazado 239" d="M49.557,82.556h2.709l-1.372-8.021H48.186Z" fill="#ff9432"/>
    <path id="Trazado_240" data-name="Trazado 240" d="M46.327,82.556h2.448L47.2,73.308H44.73Z" fill="#ffc690"/>
    <path id="Trazado_241" data-name="Trazado 241" d="M43.1,82.556h2.709l-.938-5.442H42.16Z" fill="#ff9432"/>
    <path id="Trazado_242" data-name="Trazado 242" d="M39.9,82.556h2.466L40.493,71.672H38.027Z" fill="#ffc690"/>
    <path id="Trazado_243" data-name="Trazado 243" d="M36.673,82.556h2.709l-1.389-8.021H35.284Z" fill="#ff9432"/>
    <path id="Trazado_244" data-name="Trazado 244" d="M33.426,82.556h2.466l-1.58-9.248H31.846Z" fill="#ffc690"/>
    <path id="Trazado_245" data-name="Trazado 245" d="M30.2,82.556H32.9l-.938-5.442H29.258Z" fill="#ff9432"/>
    <path id="Trazado_246" data-name="Trazado 246" d="M27,82.556h2.466L27.592,71.672H25.126Z" fill="#ffc690"/>
    <path id="Trazado_247" data-name="Trazado 247" d="M23.771,82.556H26.48l-1.372-8.021H22.4Z" fill="#ff9432"/>
    <path id="Trazado_248" data-name="Trazado 248" d="M20.542,82.556h2.466l-1.6-9.248H18.944Z" fill="#ffc690"/>
    <path id="Trazado_249" data-name="Trazado 249" d="M17.312,82.556h2.709l-.938-5.442H16.374Z" fill="#ff9432"/>
    <path id="Trazado_250" data-name="Trazado 250" d="M45.425,59.934c2.483,1.138,5.053.16,5.748-2.187a5.542,5.542,0,0,0-3.212-6.278c-2.466-1.12-5.053-.16-5.748,2.17A5.535,5.535,0,0,0,45.425,59.934Z" fill="#14d2b8"/>
    <path id="Trazado_251" data-name="Trazado 251" d="M43.393,51.86l3.3,3.841-4.463.534a4.558,4.558,0,0,1-.017-2.6A3.594,3.594,0,0,1,43.393,51.86Z" fill="#ffbd07"/>
    <path id="Trazado_252" data-name="Trazado 252" d="M45.425,59.934a5.955,5.955,0,0,1-3.195-3.681l4.463-.534,3.4,3.752A4.315,4.315,0,0,1,45.425,59.934Z" fill="#dae2f2"/>
    <path id="Trazado_253" data-name="Trazado 253" d="M47.335,51.237,46.692,55.7l-.139.018-3.56-3.468A4.077,4.077,0,0,1,47.335,51.237Z" fill="#ffc7ca"/>
    <path id="Trazado_254" data-name="Trazado 254" d="M33.044,59.934c2.466,1.138,5.053.16,5.748-2.187a5.542,5.542,0,0,0-3.212-6.278c-2.466-1.12-5.053-.16-5.747,2.17A5.554,5.554,0,0,0,33.044,59.934Z" fill="#14d2b8"/>
    <path id="Trazado_255" data-name="Trazado 255" d="M31.012,51.86l3.3,3.841-4.463.534a4.558,4.558,0,0,1-.017-2.6A3.712,3.712,0,0,1,31.012,51.86Z" fill="#ffbd07"/>
    <path id="Trazado_256" data-name="Trazado 256" d="M33.044,59.934a5.956,5.956,0,0,1-3.195-3.681l4.463-.534,3.4,3.752A4.311,4.311,0,0,1,33.044,59.934Z" fill="#dae2f2"/>
    <path id="Trazado_257" data-name="Trazado 257" d="M34.954,51.237,34.312,55.7l-.139.018-3.56-3.468A4.077,4.077,0,0,1,34.954,51.237Z" fill="#ffc7ca"/>
    <path id="Trazado_258" data-name="Trazado 258" d="M19.813,60.468c2.483,1.12,5.053.16,5.747-2.187A5.542,5.542,0,0,0,22.348,52c-2.466-1.138-5.053-.16-5.748,2.17A5.564,5.564,0,0,0,19.813,60.468Z" fill="#14d2b8"/>
    <path id="Trazado_259" data-name="Trazado 259" d="M17.8,52.411l3.3,3.842-4.463.533a4.5,4.5,0,0,1-.017-2.579A3.422,3.422,0,0,1,17.8,52.411Z" fill="#ffbd07"/>
    <path id="Trazado_260" data-name="Trazado 260" d="M19.813,60.468a5.941,5.941,0,0,1-3.195-3.7l4.463-.534,3.4,3.753A4.239,4.239,0,0,1,19.813,60.468Z" fill="#dae2f2"/>
    <path id="Trazado_261" data-name="Trazado 261" d="M21.74,51.789,21.1,56.253l-.139.018L17.4,52.8A4.044,4.044,0,0,1,21.74,51.789Z" fill="#ffc7ca"/>
    <path id="Trazado_262" data-name="Trazado 262" d="M45.685,28.864H26.758l-.226-1.245H45.476Z" fill="#29b9e6"/>
    <path id="Trazado_263" data-name="Trazado 263" d="M46.119,31.354H31.082l-.174-.978H45.945Z" fill="#29b9e6"/>
    <path id="Trazado_264" data-name="Trazado 264" d="M46.571,33.986h-19.9l-.156-.978H46.4Z" fill="#29b9e6"/>
    <path id="Trazado_265" data-name="Trazado 265" d="M47.283,38.059H28.338l-.208-1.227H47.057Z" fill="#29b9e6"/>
    <path id="Trazado_266" data-name="Trazado 266" d="M47.7,40.567H32.662l-.174-.978H47.526Z" fill="#29b9e6"/>
    <path id="Trazado_267" data-name="Trazado 267" d="M48.151,43.181H28.269L28.1,42.2h19.9Z" fill="#29b9e6"/>
    <path id="Trazado_268" data-name="Trazado 268" d="M196.718,101.123c-1.406-.551,4.324-8.875-1.91-12.271-8.178-4.446.834-18.478-2.6-18.122-5.139.516-6.581,8.714-5.643,17.873,1.181,11.7-4.653,8.537-4.775,8.483-3.334-1.547-4.775-.053-3.317,10.048s5.279,17.891,8.509,17.393a1.536,1.536,0,0,0,.573-.178,3.783,3.783,0,0,0,.625.107,2.924,2.924,0,0,0,1.424-.32c4.08.213,4.324-1.565,7.744-10.6C201.094,103.648,200.833,102.759,196.718,101.123Z" fill="#60d3be"/>
    <path id="Trazado_269" data-name="Trazado 269" d="M196.77,138.826H182.254l-1.58-17.038H198.35Z" fill="#dae2f2"/>
  </g>
</svg>
