<svg xmlns="http://www.w3.org/2000/svg" width="214.001" height="106.003" viewBox="0 0 214.001 106.003">
  <g id="img_01" transform="translate(0 0)">
    <path id="Trazado_118" data-name="Trazado 118" d="M174.452,22.066a25.741,25.741,0,1,0,31.41,18.32A25.751,25.751,0,0,0,174.452,22.066Zm10.013,38a13.537,13.537,0,1,1,9.606-16.539A13.518,13.518,0,0,1,184.465,60.063Z" fill="#dae2f2"/>
    <path id="Trazado_119" data-name="Trazado 119" d="M181.758,26.331l-11.2,2.958s-4.273-8.433-2.87-10.868c1.451-2.517,8.872-4.674,11.188-2.958C181.155,17.114,181.758,26.331,181.758,26.331Z" fill="#dae2f2"/>
    <path id="Trazado_120" data-name="Trazado 120" d="M190.842,65.08l-11.2,2.958s.44,9.463,2.854,10.868c2.512,1.455,10.013-.311,11.2-2.958C194.854,73.382,190.842,65.08,190.842,65.08Z" fill="#dae2f2"/>
    <path id="Trazado_121" data-name="Trazado 121" d="M166.135,31.986l-4.518,10.688s-9.279-1.781-10.339-4.38c-1.093-2.7,1.728-9.887,4.517-10.688C158.486,26.838,166.135,31.986,166.135,31.986Z" fill="#dae2f2"/>
    <path id="Trazado_122" data-name="Trazado 122" d="M161.258,47.757l1.093,11.554s-9,2.844-11.171,1.062c-2.235-1.847-3.164-9.528-1.093-11.554C152.093,46.858,161.258,47.757,161.258,47.757Z" fill="#dae2f2"/>
    <path id="Trazado_123" data-name="Trazado 123" d="M201.7,48.214l-2.5-11.326s8.6-3.939,10.96-2.435c2.446,1.569,4.305,9.07,2.495,11.342C210.918,47.986,201.7,48.214,201.7,48.214Z" fill="#dae2f2"/>
    <path id="Trazado_124" data-name="Trazado 124" d="M186.276,26.282l9.2,7.06s7.192-6.129,6.833-8.923c-.375-2.876-6.377-7.747-9.182-7.06C190.385,18.029,186.276,26.282,186.276,26.282Z" fill="#dae2f2"/>
    <path id="Trazado_125" data-name="Trazado 125" d="M174.012,68.692l-9.182-7.06S157.638,67.76,158,70.555c.375,2.876,6.376,7.747,9.181,7.06C169.918,76.962,174.012,68.692,174.012,68.692Z" fill="#dae2f2"/>
    <path id="Trazado_126" data-name="Trazado 126" d="M196.452,63.136l4.517-10.688s9.28,1.765,10.34,4.38c1.093,2.68-1.729,9.887-4.5,10.688C204.084,68.3,196.452,63.136,196.452,63.136Z" fill="#dae2f2"/>
    <path id="Trazado_127" data-name="Trazado 127" d="M135.214,3.5a12.457,12.457,0,1,0,15.2,8.858A12.454,12.454,0,0,0,135.214,3.5Zm4.843,18.386a6.55,6.55,0,1,1,4.648-8.008A6.534,6.534,0,0,1,140.057,21.886Z" fill="#c8eefb"/>
    <path id="Trazado_128" data-name="Trazado 128" d="M138.736,5.56,133.322,7s-2.071-4.086-1.386-5.262c.7-1.209,4.289-2.272,5.414-1.438C138.459,1.1,138.736,5.56,138.736,5.56Z" fill="#c8eefb"/>
    <path id="Trazado_129" data-name="Trazado 129" d="M143.14,24.3l-5.415,1.438s.212,4.576,1.386,5.263c1.207.7,4.844-.147,5.415-1.438C145.08,28.325,143.14,24.3,143.14,24.3Z" fill="#c8eefb"/>
    <path id="Trazado_130" data-name="Trazado 130" d="M131.185,8.305,129,13.469s-4.485-.866-5.007-2.125c-.521-1.291.832-4.788,2.186-5.164C127.483,5.8,131.185,8.305,131.185,8.305Z" fill="#c8eefb"/>
    <path id="Trazado_131" data-name="Trazado 131" d="M128.821,15.937l.522,5.589s-4.355,1.373-5.4.507c-1.077-.9-1.533-4.609-.522-5.589C124.385,15.5,128.821,15.937,128.821,15.937Z" fill="#c8eefb"/>
    <path id="Trazado_132" data-name="Trazado 132" d="M148.407,16.15,147.2,10.675s4.159-1.9,5.3-1.177c1.174.752,2.087,4.38,1.207,5.491C152.843,16.035,148.407,16.15,148.407,16.15Z" fill="#c8eefb"/>
    <path id="Trazado_133" data-name="Trazado 133" d="M140.922,5.543l4.452,3.416s3.474-2.974,3.311-4.315c-.18-1.389-3.083-3.743-4.453-3.416C142.911,1.539,140.922,5.543,140.922,5.543Z" fill="#c8eefb"/>
    <path id="Trazado_134" data-name="Trazado 134" d="M135,26.053l-4.453-3.416s-3.49,2.974-3.31,4.315c.179,1.389,3.082,3.743,4.436,3.416C133.012,30.058,135,26.053,135,26.053Z" fill="#c8eefb"/>
    <path id="Trazado_135" data-name="Trazado 135" d="M145.847,23.373l2.185-5.164s4.485.85,5.007,2.125c.522,1.291-.832,4.788-2.185,5.164C149.549,25.874,145.847,23.373,145.847,23.373Z" fill="#c8eefb"/>
    <path id="Trazado_136" data-name="Trazado 136" d="M113.947,99.989l-18.885.588.212-89.8h18.673Z" fill="#88a6f2"/>
    <path id="Trazado_137" data-name="Trazado 137" d="M138.443,34.339H117.878V99.989h20.565Z" fill="#88a6f2"/>
    <path id="Trazado_138" data-name="Trazado 138" d="M162.987,24.239H144.3V99.989h18.689Z" fill="#88a6f2"/>
    <path id="Trazado_139" data-name="Trazado 139" d="M187.482,55.389H166.917V100h20.565Z" fill="#88a6f2"/>
    <path id="Trazado_140" data-name="Trazado 140" d="M88.522,100.577l29.632-17.095,4.7,4.38,9.182-7.093L144.3,96.442l6.311-3.808,6.213,3.808L166,94.955l8.888-3.481,6.132,4.968,16.358,4.135Z" fill="#ffbd07"/>
    <path id="Trazado_141" data-name="Trazado 141" d="M41.782,55.863l-17.3-18.68,1.272-1.177L41.342,52.823,56.688,21.494,70.42,45.485,90.9,28.767,103.885,44.5l18.592-30.283,12.1,20.968,13.764-9.512,17.939,25.675,15.477-9.414,27.268-19.5L210.3,23.9,182.8,43.344l-17.01,10.329L147.918,28.08l-13.9,9.61L122.428,17.6,104.081,47.5,90.659,31.2,69.931,48.133,56.819,25.2Z" fill="#ffbd07"/>
    <path id="Trazado_142" data-name="Trazado 142" d="M43.886,53.428a2.594,2.594,0,1,1-2.528-2.664A2.592,2.592,0,0,1,43.886,53.428Z" fill="#5e4b85"/>
    <path id="Trazado_143" data-name="Trazado 143" d="M27.708,36.366A2.594,2.594,0,1,1,25.18,33.7,2.592,2.592,0,0,1,27.708,36.366Z" fill="#5e4b85"/>
    <path id="Trazado_144" data-name="Trazado 144" d="M59.151,23.226a2.594,2.594,0,1,1-2.528-2.664A2.592,2.592,0,0,1,59.151,23.226Z" fill="#5e4b85"/>
    <path id="Trazado_145" data-name="Trazado 145" d="M72.671,46.678a2.594,2.594,0,1,1-2.528-2.664A2.592,2.592,0,0,1,72.671,46.678Z" fill="#5e4b85"/>
    <path id="Trazado_146" data-name="Trazado 146" d="M93.382,30.041a2.594,2.594,0,1,1-2.528-2.664A2.592,2.592,0,0,1,93.382,30.041Z" fill="#5e4b85"/>
    <path id="Trazado_147" data-name="Trazado 147" d="M106.576,46.074a2.594,2.594,0,1,1-2.528-2.664A2.593,2.593,0,0,1,106.576,46.074Z" fill="#5e4b85"/>
    <path id="Trazado_148" data-name="Trazado 148" d="M125.249,15.986a2.594,2.594,0,1,1-2.528-2.664A2.592,2.592,0,0,1,125.249,15.986Z" fill="#5e4b85"/>
    <path id="Trazado_149" data-name="Trazado 149" d="M136.893,36.5a2.594,2.594,0,1,1-2.527-2.664A2.624,2.624,0,0,1,136.893,36.5Z" fill="#5e4b85"/>
    <path id="Trazado_150" data-name="Trazado 150" d="M150.919,27.247a2.594,2.594,0,1,1-2.528-2.664A2.593,2.593,0,0,1,150.919,27.247Z" fill="#5e4b85"/>
    <path id="Trazado_151" data-name="Trazado 151" d="M168.744,52.071a2.594,2.594,0,1,1-2.528-2.664A2.593,2.593,0,0,1,168.744,52.071Z" fill="#5e4b85"/>
    <path id="Trazado_152" data-name="Trazado 152" d="M185.134,42.838a2.594,2.594,0,1,1-2.528-2.664A2.593,2.593,0,0,1,185.134,42.838Z" fill="#5e4b85"/>
    <path id="Trazado_153" data-name="Trazado 153" d="M214,21.951a2.594,2.594,0,1,1-2.528-2.664A2.593,2.593,0,0,1,214,21.951Z" fill="#5e4b85"/>
    <path id="Trazado_154" data-name="Trazado 154" d="M22.082,106H135.214l-22.1-73.282H22.082Z" fill="#5f86eb"/>
    <path id="Trazado_155" data-name="Trazado 155" d="M22.082,106H128.968L106.886,32.721H0Z" fill="#a5beff"/>
    <path id="Trazado_156" data-name="Trazado 156" d="M199.012,100.675H128.968V106h70.044Z" fill="#5f86eb"/>
    <path id="Trazado_157" data-name="Trazado 157" d="M69.817,74.821a9.394,9.394,0,1,1-9.394-9.4A9.406,9.406,0,0,1,69.817,74.821Z" fill="#eaeaea"/>
    <path id="Trazado_158" data-name="Trazado 158" d="M182.557,97.537l1.109.359-.212,1.8.245.866,2.56,3.3-5.267-3.17Z" fill="#7a92ce"/>
    <path id="Trazado_159" data-name="Trazado 159" d="M181.791,95.723l-1.158.1-.212,1.8L180,98.4l-3.229,2.632,5.838-1.9Z" fill="#7a92ce"/>
    <path id="Trazado_160" data-name="Trazado 160" d="M190.5,46.3l.881,28.469-7.616,24.841L181.5,98.534l3.947-22.1-7-23.011Z" fill="#351270"/>
    <path id="Trazado_161" data-name="Trazado 161" d="M180.16,52.594V75.376l2.691,22.1H180.16l-5.366-22.439L169.934,47.5Z" fill="#1f0b4c"/>
    <path id="Trazado_162" data-name="Trazado 162" d="M136.763,34.732s-3.2-1.716-3.914-1.291c-.6.36-2.136,2.566,3.555,2.713Z" fill="#ffc190"/>
    <path id="Trazado_163" data-name="Trazado 163" d="M164.406,28.145l-7.535,14.578-20.956-6.406.457-1.781,16.879,2.4,7.388-12.584s2.152-4.429,4.99-2.762A14.18,14.18,0,0,1,164.406,28.145Z" fill="#ffc7ca"/>
    <path id="Trazado_164" data-name="Trazado 164" d="M172.968,17.506c2.723-.049,8.937,2.108,10.7,5.573s2.61,12.257,2.61,12.257L190.483,46.3s-8.236,11.636-20.565,4.086c0,0-3-11.244-5.039-16-1.191-2.762-5.007-10.263-1.68-12.976C168.059,17.473,170.2,17.555,172.968,17.506Z" fill="#ff2363"/>
    <path id="Trazado_165" data-name="Trazado 165" d="M169.543,14.025l2.055,3.922s-4.306,4.887-4.273,2.68a49.262,49.262,0,0,0-.571-5.965Z" fill="#ffc190"/>
    <path id="Trazado_166" data-name="Trazado 166" d="M168.45,9.22c.539.784,1.582,2.288,1.37,3.53-.228,1.242-.489,3.416-1.663,4.184a1.831,1.831,0,0,1-2.512-.67c-.522-.752-1.859-5.36-.049-6.962C166.95,8.093,168.043,8.632,168.45,9.22Z" fill="#ffc190"/>
    <path id="Trazado_167" data-name="Trazado 167" d="M164.944,10.348a2.651,2.651,0,0,0,2.463.016c1.337-.686,1.484.785,1.516.932s.245,2.223.751,2.141.6-2.746-.522-4.265A2.366,2.366,0,0,0,164.944,10.348Z" fill="#2e3b57"/>
    <path id="Trazado_168" data-name="Trazado 168" d="M169.527,14.254a4.421,4.421,0,0,1-2.659,1.9c-.962.1-1.826-1.438-1.908-1.8s.261,3.252,2.365,2.893S169.527,14.254,169.527,14.254Z" fill="#2e3b57"/>
    <path id="Trazado_169" data-name="Trazado 169" d="M158.225,41.2s-3.474-1.013-4.094-.458c-.521.474-1.581,2.958,4.029,1.928Z" fill="#ffc190"/>
    <path id="Trazado_170" data-name="Trazado 170" d="M183.943,29.093l-4.4,15.8-21.8-1.994.1-1.83,17.009-1.1,4.664-13.826s2.039-6.112,4.322-3.726C184.955,23.635,184.791,25.841,183.943,29.093Z" fill="#ffc7ca"/>
  </g>
</svg>
