<?xml version="1.0" encoding="utf-8"?>
<!-- Generator: Adobe Illustrator 23.0.6, SVG Export Plug-In . SVG Version: 6.00 Build 0)  -->
<svg version="1.1" id="Capa_1" xmlns="http://www.w3.org/2000/svg" xmlns:xlink="http://www.w3.org/1999/xlink" x="0px" y="0px"
	 viewBox="0 0 512 512" style="enable-background:new 0 0 512 512;" xml:space="preserve">
<style type="text/css">
	.st0{fill:#F2AA19;}
	.st1{fill:#FFD064;}
	.st2{fill:#EAAC9D;}
	.st3{fill:#FFCBBE;}
	.st4{fill:#FFDDCE;}
	.st5{fill:#DB5B6F;}
	.st6{fill:#D54653;}
	.st7{fill:#80B4FB;}
	.st8{fill:#61A2F9;}
</style>
<g>
	<g>
		<g>
			<path class="st0" d="M256,171.4c-0.8,0-1.6,0-2.4,0.1c1.1,56.5-2.6,112.6-1.2,169.1c1.2,0,2.3,0.1,3.5,0.1
				c46.7,0,84.6-37.9,84.6-84.6S302.8,171.4,256,171.4z"/>
			<path class="st1" d="M253.6,171.4c-45.7,1.3-82.3,38.6-82.3,84.6c0,45.6,36,82.7,81.1,84.6C251,284,254.7,228,253.6,171.4z"/>
		</g>
		<g>
			<g>
				<path class="st2" d="M362.5,390.7l-103.2,0.2c-12.2-0.2-22.7,8.7-24.4,20.8c-1.6,11.7,5.4,22.8,16.6,26.4l107.1-13.1
					L362.5,390.7z"/>
				<path class="st3" d="M331.7,411.2l-103.2,0.2c-12.2-0.2-22.7,8.7-24.4,20.8c-1.6,11.7,5.4,22.8,16.6,26.4l107.1-13.1
					L331.7,411.2z"/>
				<path class="st4" d="M189,469.1c2.9,5,7.6,9,13.5,10.9l23.4,7.5l48.1,15.4c8,2.6,16.7,2.2,24.4-1.1l141.9-60.1l-0.4-78.3
					c0-0.6,0-1.1,0-1.7c0-0.1,0-0.2,0-0.3l0-3.9c0-0.1,0-0.1,0-0.2l-0.2-45.5l-45-5.8c-21-2.7-42.2-1.6-62.6,3.2
					c-0.9,0.2-1.7,0.4-2.6,0.6c-6.2,1.5-12.2,3.4-18.2,5.7l-5.9,2.2c-12.2,4.5-18.7,18-14.5,30.4c0.5,1.6,1.2,3,2,4.4
					c3.9,6.6,10.7,11.1,18.6,11.9l48.6,4.6l-85.2,65l-64.5-1.2c-12.2-0.2-22.7,8.7-24.4,20.8C185.2,459.1,186.4,464.6,189,469.1
					L189,469.1z"/>
				<path class="st3" d="M226,487.5l48.1,15.4c8,2.6,16.7,2.2,24.4-1.1l141.9-60.1l-0.4-78.3C439.4,454.1,252.3,495.9,226,487.5
					L226,487.5z"/>
				<path class="st3" d="M440,357.4c0,1.3,0,2.6,0,3.9L440,357.4z"/>
				<path class="st5" d="M440.4,441.6l58.5,2.4l-0.3-61.8l-0.4-68.1l-58.5-2.4l0.4,74.4L440.4,441.6z"/>
				<path class="st6" d="M440.4,441.6l58.5,2.4l-0.3-61.8c-29.1,20.2-58.5,3.8-58.5,3.8L440.4,441.6z"/>
			</g>
			<g>
				<path class="st2" d="M149.5,121.3l103.2-0.2c12.2,0.2,22.7-8.7,24.4-20.8c1.6-11.7-5.4-22.8-16.6-26.4L153.3,87.1L149.5,121.3z"
					/>
				<path class="st3" d="M180.3,100.8l103.2-0.2c12.2,0.2,22.7-8.7,24.4-20.8c1.6-11.7-5.4-22.8-16.6-26.4L184.2,66.6L180.3,100.8z"
					/>
				<path class="st4" d="M323,42.9c-2.9-5-7.6-9-13.5-10.9L286,24.5L237.9,9.2c-8-2.6-16.7-2.2-24.4,1.1L71.6,70.4l0.4,78.3
					c0,0.6,0,1.1,0,1.7c0,0.1,0,0.2,0,0.3l0,3.9c0,0.1,0,0.1,0,0.2l0.2,45.5l45,5.8c21,2.7,42.2,1.6,62.6-3.2
					c0.9-0.2,1.7-0.4,2.6-0.6c6.2-1.5,12.2-3.4,18.2-5.7l5.9-2.2c12.2-4.5,18.7-18,14.5-30.4c-0.5-1.6-1.2-3-2-4.4
					c-3.9-6.6-10.7-11.1-18.6-11.9l-48.6-4.6l85.2-65l64.5,1.2c12.2,0.2,22.7-8.7,24.4-20.8C326.8,52.8,325.6,47.4,323,42.9z"/>
				<path class="st3" d="M286,24.5L237.9,9.2c-8-2.6-16.7-2.2-24.4,1.1L71.6,70.4l0.4,78.3C72.6,57.9,259.7,16.1,286,24.5z"/>
				<path class="st3" d="M72,154.6c0-1.3,0-2.6,0-3.9L72,154.6z"/>
				<path class="st7" d="M71.6,70.4l-58.5-2.4l0.3,61.8l0.4,68.1l58.5,2.4l-0.4-74.4L71.6,70.4z"/>
				<path class="st8" d="M71.6,70.4l-58.5-2.4l0.3,61.8c29.1-20.2,58.5-3.8,58.5-3.8L71.6,70.4z"/>
			</g>
		</g>
	</g>
	<g>
		<path d="M255.3,323.7c4.1,0,7.5-3.4,7.5-7.5v-6.8c18.3-2.9,29.4-16,31.2-28.9c2.1-14.7-7.4-27.4-24.1-32.2
			c-11-3.2-23.2-7.1-30.3-11.7c-3.9-2.5-3.7-6.7-3.4-8.4c0.7-4.2,4.1-9.3,11.5-11.1c2.7-0.7,5.2-1,7.5-1.1c0,0,0,0,0.1,0
			c0.3,0,0.5,0,0.8,0c10.9-0.3,17.6,4.4,18.1,4.7c3.3,2.5,8,1.8,10.5-1.5c2.5-3.3,1.9-8-1.4-10.5c-0.4-0.3-8-6-20.4-7.4v-5.5
			c0-4.1-3.4-7.5-7.5-7.5c-4.1,0-7.5,3.4-7.5,7.5v6c-1.2,0.2-2.4,0.5-3.7,0.8c-11.9,3-20.8,12.1-22.7,23.2
			c-1.6,9.4,2.3,18.4,10.1,23.4c7,4.5,16.9,8.4,34.2,13.5c9.6,2.8,14.5,8.5,13.5,15.7c-1.1,8.2-9.7,16.5-23.9,16.6
			c-11.8,0.1-16.4-0.4-26.5-5.8c-3.6-2-8.2-0.6-10.2,3c-2,3.6-0.6,8.2,3,10.2c10.3,5.5,17,7.1,26.1,7.5v6.3
			C247.8,320.3,251.1,323.7,255.3,323.7L255.3,323.7z"/>
	</g>
</g>
</svg>
