<svg xmlns="http://www.w3.org/2000/svg" viewBox="0 0 485.8 497.1"><defs><style>.cls-1{fill:#f2aa19;}.cls-2{fill:#ffd064;}.cls-3{fill:#eaac9d;}.cls-4{fill:#ffcbbe;}.cls-5{fill:#ffddce;}.cls-6{fill:#db5b6f;}.cls-7{fill:#d54653;}.cls-8{fill:#80b4fb;}.cls-9{fill:#61a2f9;}</style></defs><title>pay01</title><g id="Layer_2" data-name="Layer 2"><g id="Capa_1" data-name="Capa 1"><path class="cls-1" d="M242.9,163.9a19.27,19.27,0,0,0-2.4.1c1.1,56.5-2.6,112.6-1.2,169.1,1.2,0,2.3.1,3.5.1a84.65,84.65,0,0,0,.1-169.3Z"/><path class="cls-2" d="M240.5,163.9a84.65,84.65,0,0,0-1.2,169.2C237.9,276.5,241.6,220.5,240.5,163.9Z"/><path class="cls-3" d="M349.4,383.2l-103.2.2a24.17,24.17,0,0,0-7.8,47.2l107.1-13.1Z"/><path class="cls-4" d="M318.6,403.7l-103.2.2a24.17,24.17,0,0,0-7.8,47.2L314.7,438Z"/><path class="cls-5" d="M175.9,461.6a24.16,24.16,0,0,0,13.5,10.9l23.4,7.5,48.1,15.4a34.77,34.77,0,0,0,24.4-1.1l141.9-60.1-.4-78.3v-6.1l-.2-45.5-45-5.8a175.55,175.55,0,0,0-62.6,3.2l-2.6.6a147.44,147.44,0,0,0-18.2,5.7l-5.9,2.2a24.19,24.19,0,0,0-14.5,30.4,22,22,0,0,0,2,4.4,24.4,24.4,0,0,0,18.6,11.9l48.6,4.6-85.2,65-64.5-1.2a24.21,24.21,0,0,0-21.4,36.3Z"/><path class="cls-4" d="M212.9,480,261,495.4a34.77,34.77,0,0,0,24.4-1.1l141.9-60.1-.4-78.3c-.6,90.7-187.7,132.5-214,124.1Z"/><path class="cls-4" d="M426.9,349.9v0Z"/><path class="cls-6" d="M427.3,434.1l58.5,2.4-.3-61.8-.4-68.1-58.5-2.4.4,74.4Z"/><path class="cls-7" d="M427.3,434.1l58.5,2.4-.3-61.8c-29.1,20.2-58.5,3.8-58.5,3.8Z"/><path class="cls-3" d="M136.4,113.8l103.2-.2a24.17,24.17,0,0,0,7.8-47.2L140.2,79.6Z"/><path class="cls-4" d="M167.2,93.3l103.2-.2a24.17,24.17,0,0,0,7.8-47.2L171.1,59.1Z"/><path class="cls-5" d="M309.9,35.4a24.16,24.16,0,0,0-13.5-10.9L272.9,17,224.8,1.7a34.77,34.77,0,0,0-24.4,1.1L58.5,62.9l.4,78.3v6.1l.2,45.5,45,5.8a175.55,175.55,0,0,0,62.6-3.2l2.6-.6a147.44,147.44,0,0,0,18.2-5.7l5.9-2.2a24.19,24.19,0,0,0,14.5-30.4,22,22,0,0,0-2-4.4,24.4,24.4,0,0,0-18.6-11.9l-48.6-4.6,85.2-65,64.5,1.2A24.22,24.22,0,0,0,312.8,51,23.6,23.6,0,0,0,309.9,35.4Z"/><path class="cls-4" d="M272.9,17,224.8,1.7a34.77,34.77,0,0,0-24.4,1.1L58.5,62.9l.4,78.3C59.5,50.4,246.6,8.6,272.9,17Z"/><path class="cls-4" d="M58.9,147.1v0Z"/><path class="cls-8" d="M58.5,62.9,0,60.5l.3,61.8.4,68.1,58.5,2.4-.4-74.4Z"/><path class="cls-9" d="M58.5,62.9,0,60.5l.3,61.8c29.1-20.2,58.5-3.8,58.5-3.8Z"/><path d="M242.2,316.2a7.55,7.55,0,0,0,7.5-7.5v-6.8c18.3-2.9,29.4-16,31.2-28.9,2.1-14.7-7.4-27.4-24.1-32.2-11-3.2-23.2-7.1-30.3-11.7a8.06,8.06,0,0,1-3.4-8.4c.7-4.2,4.1-9.3,11.5-11.1a35.78,35.78,0,0,1,7.5-1.1h.9c10.9-.3,17.6,4.4,18.1,4.7a7.53,7.53,0,0,0,9.1-12c-.4-.3-8-6-20.4-7.4v-5.5a7.5,7.5,0,0,0-15,0v6c-1.2.2-2.4.5-3.7.8-11.9,3-20.8,12.1-22.7,23.2a22.82,22.82,0,0,0,10.1,23.4c7,4.5,16.9,8.4,34.2,13.5,9.6,2.8,14.5,8.5,13.5,15.7-1.1,8.2-9.7,16.5-23.9,16.6-11.8.1-16.4-.4-26.5-5.8a7.52,7.52,0,1,0-7.2,13.2c10.3,5.5,17,7.1,26.1,7.5v6.3a7.49,7.49,0,0,0,7.5,7.5Z"/></g></g></svg>